<mxfile host="Electron" agent="Mozilla/5.0 (Windows NT 10.0; Win64; x64) AppleWebKit/537.36 (KHTML, like Gecko) draw.io/26.0.16 Chrome/132.0.6834.196 Electron/34.2.0 Safari/537.36" version="26.0.16">
  <diagram name="Сторінка-1" id="IU2wMd7qMxJKuGq2485j">
    <mxGraphModel dx="757" dy="566" grid="0" gridSize="10" guides="1" tooltips="1" connect="1" arrows="1" fold="1" page="1" pageScale="1" pageWidth="1169" pageHeight="827" math="0" shadow="0">
      <root>
        <mxCell id="0" />
        <mxCell id="1" parent="0" />
        <mxCell id="7S6xqNdmJBhMlcFsViuE-1" value="Product" style="html=1;whiteSpace=wrap;" vertex="1" parent="1">
          <mxGeometry x="275" y="458" width="110" height="50" as="geometry" />
        </mxCell>
        <mxCell id="7S6xqNdmJBhMlcFsViuE-2" value="ProductStock" style="html=1;whiteSpace=wrap;" vertex="1" parent="1">
          <mxGeometry x="615" y="458" width="110" height="50" as="geometry" />
        </mxCell>
        <mxCell id="7S6xqNdmJBhMlcFsViuE-3" value="Storage" style="html=1;whiteSpace=wrap;" vertex="1" parent="1">
          <mxGeometry x="448" y="458" width="110" height="50" as="geometry" />
        </mxCell>
        <mxCell id="7S6xqNdmJBhMlcFsViuE-4" value="ConsoleReporter" style="html=1;whiteSpace=wrap;" vertex="1" parent="1">
          <mxGeometry x="448" y="156" width="110" height="50" as="geometry" />
        </mxCell>
        <mxCell id="7S6xqNdmJBhMlcFsViuE-5" value="Money" style="html=1;whiteSpace=wrap;" vertex="1" parent="1">
          <mxGeometry x="275" y="359" width="110" height="50" as="geometry" />
        </mxCell>
        <mxCell id="7S6xqNdmJBhMlcFsViuE-8" value="" style="endArrow=diamondThin;endFill=0;endSize=24;html=1;rounded=0;" edge="1" parent="1" source="7S6xqNdmJBhMlcFsViuE-1" target="7S6xqNdmJBhMlcFsViuE-3">
          <mxGeometry width="160" relative="1" as="geometry">
            <mxPoint x="480" y="521" as="sourcePoint" />
            <mxPoint x="640" y="521" as="targetPoint" />
          </mxGeometry>
        </mxCell>
        <mxCell id="7S6xqNdmJBhMlcFsViuE-9" value="" style="endArrow=diamondThin;endFill=0;endSize=24;html=1;rounded=0;" edge="1" parent="1" source="7S6xqNdmJBhMlcFsViuE-2" target="7S6xqNdmJBhMlcFsViuE-3">
          <mxGeometry width="160" relative="1" as="geometry">
            <mxPoint x="606" y="408" as="sourcePoint" />
            <mxPoint x="688" y="512" as="targetPoint" />
          </mxGeometry>
        </mxCell>
        <mxCell id="7S6xqNdmJBhMlcFsViuE-11" value="«interface»&lt;br&gt;&lt;b&gt;IReporter&lt;/b&gt;" style="html=1;whiteSpace=wrap;" vertex="1" parent="1">
          <mxGeometry x="448" y="263" width="110" height="50" as="geometry" />
        </mxCell>
        <mxCell id="7S6xqNdmJBhMlcFsViuE-12" value="" style="endArrow=block;dashed=1;endFill=0;endSize=12;html=1;rounded=0;" edge="1" parent="1" source="7S6xqNdmJBhMlcFsViuE-4" target="7S6xqNdmJBhMlcFsViuE-11">
          <mxGeometry width="160" relative="1" as="geometry">
            <mxPoint x="480" y="521" as="sourcePoint" />
            <mxPoint x="640" y="521" as="targetPoint" />
          </mxGeometry>
        </mxCell>
        <mxCell id="7S6xqNdmJBhMlcFsViuE-15" value="" style="endArrow=diamondThin;endFill=1;endSize=24;html=1;rounded=0;" edge="1" parent="1" source="7S6xqNdmJBhMlcFsViuE-5" target="7S6xqNdmJBhMlcFsViuE-1">
          <mxGeometry width="160" relative="1" as="geometry">
            <mxPoint x="120" y="359" as="sourcePoint" />
            <mxPoint x="280" y="359" as="targetPoint" />
          </mxGeometry>
        </mxCell>
        <mxCell id="7S6xqNdmJBhMlcFsViuE-28" value="Reportable" style="html=1;whiteSpace=wrap;" vertex="1" parent="1">
          <mxGeometry x="448" y="359" width="110" height="50" as="geometry" />
        </mxCell>
        <mxCell id="7S6xqNdmJBhMlcFsViuE-30" value="" style="endArrow=block;dashed=1;endFill=0;endSize=12;html=1;rounded=0;" edge="1" parent="1" source="7S6xqNdmJBhMlcFsViuE-5" target="7S6xqNdmJBhMlcFsViuE-28">
          <mxGeometry width="160" relative="1" as="geometry">
            <mxPoint x="405" y="688" as="sourcePoint" />
            <mxPoint x="565" y="688" as="targetPoint" />
          </mxGeometry>
        </mxCell>
        <mxCell id="7S6xqNdmJBhMlcFsViuE-31" value="" style="endArrow=block;dashed=1;endFill=0;endSize=12;html=1;rounded=0;" edge="1" parent="1" source="7S6xqNdmJBhMlcFsViuE-1" target="7S6xqNdmJBhMlcFsViuE-28">
          <mxGeometry width="160" relative="1" as="geometry">
            <mxPoint x="434" y="658" as="sourcePoint" />
            <mxPoint x="455" y="704" as="targetPoint" />
          </mxGeometry>
        </mxCell>
        <mxCell id="7S6xqNdmJBhMlcFsViuE-32" value="" style="endArrow=block;dashed=1;endFill=0;endSize=12;html=1;rounded=0;" edge="1" parent="1" source="7S6xqNdmJBhMlcFsViuE-3" target="7S6xqNdmJBhMlcFsViuE-28">
          <mxGeometry width="160" relative="1" as="geometry">
            <mxPoint x="615" y="408.5" as="sourcePoint" />
            <mxPoint x="700" y="359.5" as="targetPoint" />
          </mxGeometry>
        </mxCell>
        <mxCell id="7S6xqNdmJBhMlcFsViuE-33" value="" style="endArrow=open;endFill=1;endSize=12;html=1;rounded=0;" edge="1" parent="1" source="7S6xqNdmJBhMlcFsViuE-28" target="7S6xqNdmJBhMlcFsViuE-11">
          <mxGeometry width="160" relative="1" as="geometry">
            <mxPoint x="385" y="261" as="sourcePoint" />
            <mxPoint x="545" y="261" as="targetPoint" />
          </mxGeometry>
        </mxCell>
        <mxCell id="7S6xqNdmJBhMlcFsViuE-34" value="" style="endArrow=diamondThin;endFill=0;endSize=24;html=1;rounded=0;exitX=1;exitY=0;exitDx=0;exitDy=0;" edge="1" parent="1" source="7S6xqNdmJBhMlcFsViuE-3" target="7S6xqNdmJBhMlcFsViuE-11">
          <mxGeometry width="160" relative="1" as="geometry">
            <mxPoint x="744.61" y="421" as="sourcePoint" />
            <mxPoint x="649.0021568627452" y="226.9999999999999" as="targetPoint" />
            <Array as="points">
              <mxPoint x="602" y="373" />
            </Array>
          </mxGeometry>
        </mxCell>
      </root>
    </mxGraphModel>
  </diagram>
</mxfile>
